<svg xmlns="http://www.w3.org/2000/svg" xmlns:xlink="http://www.w3.org/1999/xlink" width="1919.85" height="1080" viewBox="0 0 1919.85 1080">
  <defs>
    <linearGradient id="a" x1="959.93" y1="1080" x2="959.93" gradientUnits="userSpaceOnUse">
      <stop offset="0" stop-color="#eff1f8"/>
      <stop offset="1" stop-color="#c6f0f7"/>
    </linearGradient>
  </defs>
  <title>Asset 1</title>
  <g>
    <g>
      <path d="M1773.67,0A185.33,185.33,0,0,1,1780,48c0,102-83,185-185,185a184,184,0,0,1-63.05-11,185,185,0,0,1-336.1-51.71A185,185,0,0,1,903.25,150.9a186.74,186.74,0,0,1-54.66,42.17A183,183,0,0,1,765,213a183.83,183.83,0,0,1-106.1-33.44,184.81,184.81,0,0,1-58.3-66.64,185.48,185.48,0,0,1-57.15,58.45A184.29,184.29,0,0,1,443,201a184.86,184.86,0,0,1-93.15-25.14,186.15,186.15,0,0,1-62-59.13A184.67,184.67,0,0,1,233,125c-5.66,0-11.35-.26-17-.77A185.37,185.37,0,0,1,58,213a184.62,184.62,0,0,1-58-9.29V1080H1919.85V0Z" fill="url(#a)"/>
      <path d="M216,124.23c5.64.51,11.32.77,17,.77a184.67,184.67,0,0,0,54.82-8.27,186.15,186.15,0,0,0,62,59.13A184.86,184.86,0,0,0,443,201a184.29,184.29,0,0,0,100.45-29.63,185.48,185.48,0,0,0,57.15-58.45,184.81,184.81,0,0,0,58.3,66.64A183.83,183.83,0,0,0,765,213a183,183,0,0,0,83.6-19.93,186.74,186.74,0,0,0,54.66-42.17,185,185,0,0,0,292.59,19.35A185,185,0,0,0,1531.95,222,184,184,0,0,0,1595,233c102,0,185-83,185-185a185.33,185.33,0,0,0-6.33-48H0V203.71A184.62,184.62,0,0,0,58,213,185.37,185.37,0,0,0,216,124.23Z" fill="#efefef"/>
    </g>
    <path d="M210.66,113.59A176.68,176.68,0,0,0,233,115a174.67,174.67,0,0,0,59.15-10.26,175,175,0,0,0,309.3-14.38A175.05,175.05,0,0,0,765,203a174.71,174.71,0,0,0,139.43-69.25,175,175,0,0,0,297,13,175,175,0,0,0,326.2,62.8A174.45,174.45,0,0,0,1595,223,175.11,175.11,0,0,0,1763.32,0H0V193.15a175.17,175.17,0,0,0,210.66-79.56Z" fill="#fff"/>
    <path d="M0,725.15S213,649,689.69,838c312.63,123.93,1230.16-81.89,1230.16-81.89V1080H0Z" fill="#5dbc42"/>
    <path d="M1577,0h342.85a0,0,0,0,1,0,0V342.85a0,0,0,0,1,0,0h0A342.85,342.85,0,0,1,1577,0V0A0,0,0,0,1,1577,0Z" fill="#e5e513"/>
    <line x1="1471" y1="35" x2="1547" y2="35" fill="none" stroke="#e5e513" stroke-miterlimit="10" stroke-width="15"/>
    <line x1="1478.06" y1="86.7" x2="1553.55" y2="77.91" fill="none" stroke="#e5e513" stroke-miterlimit="10" stroke-width="15"/>
    <line x1="1491.06" y1="137.24" x2="1565.03" y2="119.77" fill="none" stroke="#e5e513" stroke-miterlimit="10" stroke-width="15"/>
    <line x1="1509.82" y1="185.93" x2="1581.27" y2="160.02" fill="none" stroke="#e5e513" stroke-miterlimit="10" stroke-width="15"/>
    <line x1="1534.09" y1="232.12" x2="1602.06" y2="198.12" fill="none" stroke="#e5e513" stroke-miterlimit="10" stroke-width="15"/>
    <line x1="1563.54" y1="275.2" x2="1627.12" y2="233.56" fill="none" stroke="#e5e513" stroke-miterlimit="10" stroke-width="15"/>
    <line x1="1597.78" y1="314.58" x2="1656.11" y2="265.86" fill="none" stroke="#e5e513" stroke-miterlimit="10" stroke-width="15"/>
    <line x1="1636.34" y1="349.73" x2="1688.64" y2="294.6" fill="none" stroke="#e5e513" stroke-miterlimit="10" stroke-width="15"/>
    <line x1="1678.71" y1="380.19" x2="1724.28" y2="319.37" fill="none" stroke="#e5e513" stroke-miterlimit="10" stroke-width="15"/>
    <line x1="1724.32" y1="405.54" x2="1762.55" y2="339.85" fill="none" stroke="#e5e513" stroke-miterlimit="10" stroke-width="15"/>
    <line x1="1772.56" y1="425.44" x2="1802.93" y2="355.77" fill="none" stroke="#e5e513" stroke-miterlimit="10" stroke-width="15"/>
    <line x1="1822.78" y1="439.62" x2="1844.88" y2="366.91" fill="none" stroke="#e5e513" stroke-miterlimit="10" stroke-width="15"/>
    <line x1="1874.3" y1="447.9" x2="1887.84" y2="373.12" fill="none" stroke="#e5e513" stroke-miterlimit="10" stroke-width="15"/>
  </g>
</svg>
