<svg xmlns="http://www.w3.org/2000/svg" width="1187.61" height="640.28" viewBox="0 0 1187.61 640.28">
  <title>Asset 1</title>
  <g>
    <g>
      <g>
        <path d="M278,15V127.7H202.84V90.14H127.7v75.14h75.14v75.14H127.7v75.14h37.57v75.14H15V315.54H52.57V90.14H15V15Z"/>
        <path d="M424.49,315.54h37.57v75.14H311.78V315.54h37.57V90.14H311.78V15H462.06V90.14H424.49Z"/>
        <path d="M740.05,278h75.14V390.68H492.1L683.16,90.14H571V127.7H495.86V15H819.48L629,315.54H740.05Z"/>
        <path d="M1093.18,278h75.14V390.68H845.24L1036.3,90.14H924.13V127.7H849V15h323.62L982.09,315.54h111.09Z"/>
      </g>
      <g>
        <path d="M171.35,511.88a64,64,0,0,1,13.9,20.86,67.85,67.85,0,0,1-.31,51.6A67.23,67.23,0,0,1,149.25,620a65.3,65.3,0,0,1-26.11,5.25H15V582H36.63V452.24H15V409H123.15a60.89,60.89,0,0,1,24.41,4.94,63,63,0,0,1,33.37,33.37,62.63,62.63,0,0,1,1.08,46A66.55,66.55,0,0,1,171.35,511.88ZM79.89,452.24v38.93h43.26a19.47,19.47,0,0,0,0-38.93ZM123.15,582a23.79,23.79,0,1,0,0-47.58H79.89V582Z"/>
        <path d="M410.5,409v43.26H388.87V560.39a62.89,62.89,0,0,1-5.1,25.34,65.1,65.1,0,0,1-34.61,34.45,63.27,63.27,0,0,1-25.18,5.1H293.71a62.89,62.89,0,0,1-25.34-5.1,65.52,65.52,0,0,1-34.45-34.45,62.89,62.89,0,0,1-5.1-25.34V452.24H207.19V409h86.52v43.26H272.08V560.39A21.63,21.63,0,0,0,293.71,582H324a21.63,21.63,0,0,0,21.63-21.63V452.24H324V409Z"/>
        <path d="M570.56,560.39h43.26v64.89h-186l110-173H473.23v21.63H430V409H616.29L506.6,582h64Z"/>
        <path d="M773.87,560.39h43.26v64.89h-186l110-173H676.54v21.63H633.28V409H819.6L709.91,582h64Z"/>
        <path d="M988,560.39v64.89H836.59V582h21.63V452.24H836.59V409h86.52v43.26H901.48V582h43.26V560.39Z"/>
        <path d="M1089.34,541.23V582H1111v43.26h-86.52V582h21.63V541.23l-61.18-89H967.29V409h86.52v43.26h-16.38l30.28,44.19,30.59-44.19h-16.38V409h86.52v43.26h-17.61Z"/>
      </g>
    </g>
    <g opacity="0.5">
      <g>
        <path d="M263,0V112.7H187.84V75.14H112.7v75.14h75.14v75.14H112.7v75.14h37.57v75.14H0V300.54H37.57V75.14H0V0Z" fill="#94ff9c"/>
        <path d="M409.49,300.54h37.57v75.14H296.78V300.54h37.57V75.14H296.78V0H447.06V75.14H409.49Z" fill="#94ff9c"/>
        <path d="M725.05,263h75.14V375.68H477.1L668.16,75.14H556V112.7H480.86V0H804.48L614,300.54H725.05Z" fill="#94ff9c"/>
        <path d="M1078.18,263h75.14V375.68H830.24L1021.3,75.14H909.13V112.7H834V0h323.62L967.09,300.54h111.09Z" fill="#94ff9c"/>
      </g>
      <g>
        <g>
          <path d="M156.35,496.88a64,64,0,0,1,13.9,20.86,67.85,67.85,0,0,1-.31,51.6A67.23,67.23,0,0,1,134.25,605a65.3,65.3,0,0,1-26.11,5.25H0V567H21.63V437.24H0V394H108.15a60.89,60.89,0,0,1,24.41,4.94,63,63,0,0,1,33.37,33.37,62.63,62.63,0,0,1,1.08,46A66.55,66.55,0,0,1,156.35,496.88ZM64.89,437.24v38.93h43.26a19.47,19.47,0,0,0,0-38.93ZM108.15,567a23.79,23.79,0,1,0,0-47.58H64.89V567Z" fill="#94ff9c"/>
          <path d="M395.5,394v43.26H373.87V545.39a62.89,62.89,0,0,1-5.1,25.34,65.1,65.1,0,0,1-34.61,34.45,63.27,63.27,0,0,1-25.18,5.1H278.71a62.89,62.89,0,0,1-25.34-5.1,65.52,65.52,0,0,1-34.45-34.45,62.89,62.89,0,0,1-5.1-25.34V437.24H192.19V394h86.52v43.26H257.08V545.39A21.63,21.63,0,0,0,278.71,567H309a21.63,21.63,0,0,0,21.63-21.63V437.24H309V394Z" fill="#94ff9c"/>
          <path d="M555.56,545.39h43.26v64.89h-186l110-173H458.23v21.63H415V394H601.29L491.6,567h64Z" fill="#94ff9c"/>
          <path d="M758.87,545.39h43.26v64.89h-186l110-173H661.54v21.63H618.28V394H804.6L694.91,567h64Z" fill="#94ff9c"/>
          <path d="M973,545.39v64.89H821.59V567h21.63V437.24H821.59V394h86.52v43.26H886.48V567h43.26V545.39Z" fill="#94ff9c"/>
          <path d="M1074.34,526.23V567H1096v43.26h-86.52V567h21.63V526.23l-61.18-89H952.29V394h86.52v43.26h-16.38l30.28,44.19,30.59-44.19h-16.38V394h86.52v43.26h-17.61Z" fill="#94ff9c"/>
        </g>
        <g>
          <path d="M156.35,496.88a64,64,0,0,1,13.9,20.86,67.85,67.85,0,0,1-.31,51.6A67.23,67.23,0,0,1,134.25,605a65.3,65.3,0,0,1-26.11,5.25H0V567H21.63V437.24H0V394H108.15a60.89,60.89,0,0,1,24.41,4.94,63,63,0,0,1,33.37,33.37,62.63,62.63,0,0,1,1.08,46A66.55,66.55,0,0,1,156.35,496.88ZM64.89,437.24v38.93h43.26a19.47,19.47,0,0,0,0-38.93ZM108.15,567a23.79,23.79,0,1,0,0-47.58H64.89V567Z" fill="#94ff9c"/>
          <path d="M395.5,394v43.26H373.87V545.39a62.89,62.89,0,0,1-5.1,25.34,65.1,65.1,0,0,1-34.61,34.45,63.27,63.27,0,0,1-25.18,5.1H278.71a62.89,62.89,0,0,1-25.34-5.1,65.52,65.52,0,0,1-34.45-34.45,62.89,62.89,0,0,1-5.1-25.34V437.24H192.19V394h86.52v43.26H257.08V545.39A21.63,21.63,0,0,0,278.71,567H309a21.63,21.63,0,0,0,21.63-21.63V437.24H309V394Z" fill="#94ff9c"/>
          <path d="M555.56,545.39h43.26v64.89h-186l110-173H458.23v21.63H415V394H601.29L491.6,567h64Z" fill="#94ff9c"/>
          <path d="M758.87,545.39h43.26v64.89h-186l110-173H661.54v21.63H618.28V394H804.6L694.91,567h64Z" fill="#94ff9c"/>
          <path d="M973,545.39v64.89H821.59V567h21.63V437.24H821.59V394h86.52v43.26H886.48V567h43.26V545.39Z" fill="#94ff9c"/>
          <path d="M1074.34,526.23V567H1096v43.26h-86.52V567h21.63V526.23l-61.18-89H952.29V394h86.52v43.26h-16.38l30.28,44.19,30.59-44.19h-16.38V394h86.52v43.26h-17.61Z" fill="#94ff9c"/>
        </g>
        <g>
          <path d="M156.35,496.88a64,64,0,0,1,13.9,20.86,67.85,67.85,0,0,1-.31,51.6A67.23,67.23,0,0,1,134.25,605a65.3,65.3,0,0,1-26.11,5.25H0V567H21.63V437.24H0V394H108.15a60.89,60.89,0,0,1,24.41,4.94,63,63,0,0,1,33.37,33.37,62.63,62.63,0,0,1,1.08,46A66.55,66.55,0,0,1,156.35,496.88ZM64.89,437.24v38.93h43.26a19.47,19.47,0,0,0,0-38.93ZM108.15,567a23.79,23.79,0,1,0,0-47.58H64.89V567Z" fill="#94ff9c"/>
          <path d="M395.5,394v43.26H373.87V545.39a62.89,62.89,0,0,1-5.1,25.34,65.1,65.1,0,0,1-34.61,34.45,63.27,63.27,0,0,1-25.18,5.1H278.71a62.89,62.89,0,0,1-25.34-5.1,65.52,65.52,0,0,1-34.45-34.45,62.89,62.89,0,0,1-5.1-25.34V437.24H192.19V394h86.52v43.26H257.08V545.39A21.63,21.63,0,0,0,278.71,567H309a21.63,21.63,0,0,0,21.63-21.63V437.24H309V394Z" fill="#94ff9c"/>
          <path d="M555.56,545.39h43.26v64.89h-186l110-173H458.23v21.63H415V394H601.29L491.6,567h64Z" fill="#94ff9c"/>
          <path d="M758.87,545.39h43.26v64.89h-186l110-173H661.54v21.63H618.28V394H804.6L694.91,567h64Z" fill="#94ff9c"/>
          <path d="M973,545.39v64.89H821.59V567h21.63V437.24H821.59V394h86.52v43.26H886.48V567h43.26V545.39Z" fill="#94ff9c"/>
          <path d="M1074.34,526.23V567H1096v43.26h-86.52V567h21.63V526.23l-61.18-89H952.29V394h86.52v43.26h-16.38l30.28,44.19,30.59-44.19h-16.38V394h86.52v43.26h-17.61Z" fill="#94ff9c"/>
        </g>
      </g>
    </g>
    <g opacity="0.5">
      <g>
        <path d="M293,30V142.7H217.84V105.14H142.7v75.14h75.14v75.14H142.7v75.14h37.57v75.14H30V330.54H67.57V105.14H30V30Z" fill="#ff4a99"/>
        <path d="M439.49,330.54h37.57v75.14H326.78V330.54h37.57V105.14H326.78V30H477.06v75.14H439.49Z" fill="#ff4a99"/>
        <path d="M755.05,293h75.14V405.68H507.1L698.16,105.14H586V142.7H510.86V30H834.48L644,330.54H755.05Z" fill="#ff4a99"/>
        <path d="M1108.18,293h75.14V405.68H860.24L1051.3,105.14H939.13V142.7H864V30h323.62L997.09,330.54h111.09Z" fill="#ff4a99"/>
      </g>
      <g>
        <g>
          <path d="M186.35,526.88a64,64,0,0,1,13.9,20.86,67.85,67.85,0,0,1-.31,51.6A67.23,67.23,0,0,1,164.25,635a65.3,65.3,0,0,1-26.11,5.25H30V597H51.63V467.24H30V424H138.15a60.89,60.89,0,0,1,24.41,4.94,63,63,0,0,1,33.37,33.37,62.63,62.63,0,0,1,1.08,46A66.55,66.55,0,0,1,186.35,526.88ZM94.89,467.24v38.93h43.26a19.47,19.47,0,0,0,0-38.93ZM138.15,597a23.79,23.79,0,1,0,0-47.58H94.89V597Z" fill="#ff4a99"/>
          <path d="M425.5,424v43.26H403.87V575.39a62.89,62.89,0,0,1-5.1,25.34,65.1,65.1,0,0,1-34.61,34.45,63.27,63.27,0,0,1-25.18,5.1H308.71a62.89,62.89,0,0,1-25.34-5.1,65.52,65.52,0,0,1-34.45-34.45,62.89,62.89,0,0,1-5.1-25.34V467.24H222.19V424h86.52v43.26H287.08V575.39A21.63,21.63,0,0,0,308.71,597H339a21.63,21.63,0,0,0,21.63-21.63V467.24H339V424Z" fill="#ff4a99"/>
          <path d="M585.56,575.39h43.26v64.89h-186l110-173H488.23v21.63H445V424H631.29L521.6,597h64Z" fill="#ff4a99"/>
          <path d="M788.87,575.39h43.26v64.89h-186l110-173H691.54v21.63H648.28V424H834.6L724.91,597h64Z" fill="#ff4a99"/>
          <path d="M1003,575.39v64.89H851.59V597h21.63V467.24H851.59V424h86.52v43.26H916.48V597h43.26V575.39Z" fill="#ff4a99"/>
          <path d="M1104.34,556.23V597H1126v43.26h-86.52V597h21.63V556.23l-61.18-89H982.29V424h86.52v43.26h-16.38l30.28,44.19,30.59-44.19h-16.38V424h86.52v43.26h-17.61Z" fill="#ff4a99"/>
        </g>
        <g>
          <path d="M186.35,526.88a64,64,0,0,1,13.9,20.86,67.85,67.85,0,0,1-.31,51.6A67.23,67.23,0,0,1,164.25,635a65.3,65.3,0,0,1-26.11,5.25H30V597H51.63V467.24H30V424H138.15a60.89,60.89,0,0,1,24.41,4.94,63,63,0,0,1,33.37,33.37,62.63,62.63,0,0,1,1.08,46A66.55,66.55,0,0,1,186.35,526.88ZM94.89,467.24v38.93h43.26a19.47,19.47,0,0,0,0-38.93ZM138.15,597a23.79,23.79,0,1,0,0-47.58H94.89V597Z" fill="#ff4a99"/>
          <path d="M425.5,424v43.26H403.87V575.39a62.89,62.89,0,0,1-5.1,25.34,65.1,65.1,0,0,1-34.61,34.45,63.27,63.27,0,0,1-25.18,5.1H308.71a62.89,62.89,0,0,1-25.34-5.1,65.52,65.52,0,0,1-34.45-34.45,62.89,62.89,0,0,1-5.1-25.34V467.24H222.19V424h86.52v43.26H287.08V575.39A21.63,21.63,0,0,0,308.71,597H339a21.63,21.63,0,0,0,21.63-21.63V467.24H339V424Z" fill="#ff4a99"/>
          <path d="M585.56,575.39h43.26v64.89h-186l110-173H488.23v21.63H445V424H631.29L521.6,597h64Z" fill="#ff4a99"/>
          <path d="M788.87,575.39h43.26v64.89h-186l110-173H691.54v21.63H648.28V424H834.6L724.91,597h64Z" fill="#ff4a99"/>
          <path d="M1003,575.39v64.89H851.59V597h21.63V467.24H851.59V424h86.52v43.26H916.48V597h43.26V575.39Z" fill="#ff4a99"/>
          <path d="M1104.34,556.23V597H1126v43.26h-86.52V597h21.63V556.23l-61.18-89H982.29V424h86.52v43.26h-16.38l30.28,44.19,30.59-44.19h-16.38V424h86.52v43.26h-17.61Z" fill="#ff4a99"/>
        </g>
        <g>
          <path d="M186.35,526.88a64,64,0,0,1,13.9,20.86,67.85,67.85,0,0,1-.31,51.6A67.23,67.23,0,0,1,164.25,635a65.3,65.3,0,0,1-26.11,5.25H30V597H51.63V467.24H30V424H138.15a60.89,60.89,0,0,1,24.41,4.94,63,63,0,0,1,33.37,33.37,62.63,62.63,0,0,1,1.08,46A66.55,66.55,0,0,1,186.35,526.88ZM94.89,467.24v38.93h43.26a19.47,19.47,0,0,0,0-38.93ZM138.15,597a23.79,23.79,0,1,0,0-47.58H94.89V597Z" fill="#ff4a99"/>
          <path d="M425.5,424v43.26H403.87V575.39a62.89,62.89,0,0,1-5.1,25.34,65.1,65.1,0,0,1-34.61,34.45,63.27,63.27,0,0,1-25.18,5.1H308.71a62.89,62.89,0,0,1-25.34-5.1,65.52,65.52,0,0,1-34.45-34.45,62.89,62.89,0,0,1-5.1-25.34V467.24H222.19V424h86.52v43.26H287.08V575.39A21.63,21.63,0,0,0,308.71,597H339a21.63,21.63,0,0,0,21.63-21.63V467.24H339V424Z" fill="#ff4a99"/>
          <path d="M585.56,575.39h43.26v64.89h-186l110-173H488.23v21.63H445V424H631.29L521.6,597h64Z" fill="#ff4a99"/>
          <path d="M788.87,575.39h43.26v64.89h-186l110-173H691.54v21.63H648.28V424H834.6L724.91,597h64Z" fill="#ff4a99"/>
          <path d="M1003,575.39v64.89H851.59V597h21.63V467.24H851.59V424h86.52v43.26H916.48V597h43.26V575.39Z" fill="#ff4a99"/>
          <path d="M1104.34,556.23V597H1126v43.26h-86.52V597h21.63V556.23l-61.18-89H982.29V424h86.52v43.26h-16.38l30.28,44.19,30.59-44.19h-16.38V424h86.52v43.26h-17.61Z" fill="#ff4a99"/>
        </g>
      </g>
    </g>
    <g>
      <g>
        <path d="M278,15V127.7H202.84V90.14H127.7v75.14h75.14v75.14H127.7v75.14h37.57v75.14H15V315.54H52.57V90.14H15V15Z" fill="#15f8ff"/>
        <path d="M424.49,315.54h37.57v75.14H311.78V315.54h37.57V90.14H311.78V15H462.06V90.14H424.49Z" fill="#15f8ff"/>
        <path d="M740.05,278h75.14V390.68H492.1L683.16,90.14H571V127.7H495.86V15H819.48L629,315.54H740.05Z" fill="#15f8ff"/>
        <path d="M1093.18,278h75.14V390.68H845.24L1036.3,90.14H924.13V127.7H849V15h323.62L982.09,315.54h111.09Z" fill="#15f8ff"/>
      </g>
      <g>
        <g>
          <path d="M171.35,511.88a64,64,0,0,1,13.9,20.86,67.85,67.85,0,0,1-.31,51.6A67.23,67.23,0,0,1,149.25,620a65.3,65.3,0,0,1-26.11,5.25H15V582H36.63V452.24H15V409H123.15a60.89,60.89,0,0,1,24.41,4.94,63,63,0,0,1,33.37,33.37,62.63,62.63,0,0,1,1.08,46A66.55,66.55,0,0,1,171.35,511.88ZM79.89,452.24v38.93h43.26a19.47,19.47,0,0,0,0-38.93ZM123.15,582a23.79,23.79,0,1,0,0-47.58H79.89V582Z" fill="#15f8ff"/>
          <path d="M410.5,409v43.26H388.87V560.39a62.89,62.89,0,0,1-5.1,25.34,65.1,65.1,0,0,1-34.61,34.45,63.27,63.27,0,0,1-25.18,5.1H293.71a62.89,62.89,0,0,1-25.34-5.1,65.52,65.52,0,0,1-34.45-34.45,62.89,62.89,0,0,1-5.1-25.34V452.24H207.19V409h86.52v43.26H272.08V560.39A21.63,21.63,0,0,0,293.71,582H324a21.63,21.63,0,0,0,21.63-21.63V452.24H324V409Z" fill="#15f8ff"/>
          <path d="M570.56,560.39h43.26v64.89h-186l110-173H473.23v21.63H430V409H616.29L506.6,582h64Z" fill="#15f8ff"/>
          <path d="M773.87,560.39h43.26v64.89h-186l110-173H676.54v21.63H633.28V409H819.6L709.91,582h64Z" fill="#15f8ff"/>
          <path d="M988,560.39v64.89H836.59V582h21.63V452.24H836.59V409h86.52v43.26H901.48V582h43.26V560.39Z" fill="#15f8ff"/>
          <path d="M1089.34,541.23V582H1111v43.26h-86.52V582h21.63V541.23l-61.18-89H967.29V409h86.52v43.26h-16.38l30.28,44.19,30.59-44.19h-16.38V409h86.52v43.26h-17.61Z" fill="#15f8ff"/>
        </g>
        <g>
          <path d="M171.35,511.88a64,64,0,0,1,13.9,20.86,67.85,67.85,0,0,1-.31,51.6A67.23,67.23,0,0,1,149.25,620a65.3,65.3,0,0,1-26.11,5.25H15V582H36.63V452.24H15V409H123.15a60.89,60.89,0,0,1,24.41,4.94,63,63,0,0,1,33.37,33.37,62.63,62.63,0,0,1,1.08,46A66.55,66.55,0,0,1,171.35,511.88ZM79.89,452.24v38.93h43.26a19.47,19.47,0,0,0,0-38.93ZM123.15,582a23.79,23.79,0,1,0,0-47.58H79.89V582Z" fill="#15f8ff"/>
          <path d="M410.5,409v43.26H388.87V560.39a62.89,62.89,0,0,1-5.1,25.34,65.1,65.1,0,0,1-34.61,34.45,63.27,63.27,0,0,1-25.18,5.1H293.71a62.89,62.89,0,0,1-25.34-5.1,65.52,65.52,0,0,1-34.45-34.45,62.89,62.89,0,0,1-5.1-25.34V452.24H207.19V409h86.52v43.26H272.08V560.39A21.63,21.63,0,0,0,293.71,582H324a21.63,21.63,0,0,0,21.63-21.63V452.24H324V409Z" fill="#15f8ff"/>
          <path d="M570.56,560.39h43.26v64.89h-186l110-173H473.23v21.63H430V409H616.29L506.6,582h64Z" fill="#15f8ff"/>
          <path d="M773.87,560.39h43.26v64.89h-186l110-173H676.54v21.63H633.28V409H819.6L709.91,582h64Z" fill="#15f8ff"/>
          <path d="M988,560.39v64.89H836.59V582h21.63V452.24H836.59V409h86.52v43.26H901.48V582h43.26V560.39Z" fill="#15f8ff"/>
          <path d="M1089.34,541.23V582H1111v43.26h-86.52V582h21.63V541.23l-61.18-89H967.29V409h86.52v43.26h-16.38l30.28,44.19,30.59-44.19h-16.38V409h86.52v43.26h-17.61Z" fill="#15f8ff"/>
        </g>
        <g>
          <path d="M171.35,511.88a64,64,0,0,1,13.9,20.86,67.85,67.85,0,0,1-.31,51.6A67.23,67.23,0,0,1,149.25,620a65.3,65.3,0,0,1-26.11,5.25H15V582H36.63V452.24H15V409H123.15a60.89,60.89,0,0,1,24.41,4.94,63,63,0,0,1,33.37,33.37,62.63,62.63,0,0,1,1.08,46A66.55,66.55,0,0,1,171.35,511.88ZM79.89,452.24v38.93h43.26a19.47,19.47,0,0,0,0-38.93ZM123.15,582a23.79,23.79,0,1,0,0-47.58H79.89V582Z" fill="#15f8ff"/>
          <path d="M410.5,409v43.26H388.87V560.39a62.89,62.89,0,0,1-5.1,25.34,65.1,65.1,0,0,1-34.61,34.45,63.27,63.27,0,0,1-25.18,5.1H293.71a62.89,62.89,0,0,1-25.34-5.1,65.52,65.52,0,0,1-34.45-34.45,62.89,62.89,0,0,1-5.1-25.34V452.24H207.19V409h86.52v43.26H272.08V560.39A21.63,21.63,0,0,0,293.71,582H324a21.63,21.63,0,0,0,21.63-21.63V452.24H324V409Z" fill="#15f8ff"/>
          <path d="M570.56,560.39h43.26v64.89h-186l110-173H473.23v21.63H430V409H616.29L506.6,582h64Z" fill="#15f8ff"/>
          <path d="M773.87,560.39h43.26v64.89h-186l110-173H676.54v21.63H633.28V409H819.6L709.91,582h64Z" fill="#15f8ff"/>
          <path d="M988,560.39v64.89H836.59V582h21.63V452.24H836.59V409h86.52v43.26H901.48V582h43.26V560.39Z" fill="#15f8ff"/>
          <path d="M1089.34,541.23V582H1111v43.26h-86.52V582h21.63V541.23l-61.18-89H967.29V409h86.52v43.26h-16.38l30.28,44.19,30.59-44.19h-16.38V409h86.52v43.26h-17.61Z" fill="#15f8ff"/>
        </g>
      </g>
    </g>
  </g>
</svg>
